<?xml version="1.0" encoding="UTF-8" standalone="no"?>
<!-- Created with Inkscape (http://www.inkscape.org/) -->

<svg
   xmlns:osb="http://www.openswatchbook.org/uri/2009/osb"
   xmlns:dc="http://purl.org/dc/elements/1.1/"
   xmlns:cc="http://creativecommons.org/ns#"
   xmlns:rdf="http://www.w3.org/1999/02/22-rdf-syntax-ns#"
   xmlns:svg="http://www.w3.org/2000/svg"
   xmlns="http://www.w3.org/2000/svg"
   xmlns:xlink="http://www.w3.org/1999/xlink"
   xmlns:sodipodi="http://sodipodi.sourceforge.net/DTD/sodipodi-0.dtd"
   xmlns:inkscape="http://www.inkscape.org/namespaces/inkscape"
   width="512"
   height="512"
   id="svg2"
   version="1.1"
   inkscape:version="0.48.5 r10040"
   sodipodi:docname="apple-icon.svg"
   inkscape:export-filename="/home/markus/src/alive/mine/GalEx/src/htdocs/apple-icon.png"
   inkscape:export-xdpi="90"
   inkscape:export-ydpi="90">
  <defs
     id="defs4">
    <linearGradient
       id="linearGradient10256">
      <stop
         style="stop-color:#ededed;stop-opacity:1;"
         offset="0"
         id="stop10258" />
      <stop
         style="stop-color:#ffffff;stop-opacity:0.50862068;"
         offset="1"
         id="stop10260" />
    </linearGradient>
    <linearGradient
       id="linearGradient10248">
      <stop
         style="stop-color:#8f8f8f;stop-opacity:1;"
         offset="0"
         id="stop10250" />
      <stop
         style="stop-color:#111111;stop-opacity:1;"
         offset="1"
         id="stop10252" />
    </linearGradient>
    <linearGradient
       id="linearGradient5900"
       osb:paint="solid">
      <stop
         style="stop-color:#333333;stop-opacity:1;"
         offset="0"
         id="stop5902" />
    </linearGradient>
    <filter
       inkscape:collect="always"
       id="filter10636"
       color-interpolation-filters="sRGB">
      <feGaussianBlur
         inkscape:collect="always"
         stdDeviation="1.7993828"
         id="feGaussianBlur10638" />
    </filter>
    <radialGradient
       inkscape:collect="always"
       xlink:href="#linearGradient10248"
       id="radialGradient4107"
       gradientUnits="userSpaceOnUse"
       gradientTransform="matrix(1.3857737,0,0,1.4670129,-1627.2574,-782.67618)"
       cx="1300.7063"
       cy="1100.9974"
       fx="1300.7063"
       fy="1100.9974"
       r="43.703541" />
    <radialGradient
       inkscape:collect="always"
       xlink:href="#linearGradient10256"
       id="radialGradient4109"
       gradientUnits="userSpaceOnUse"
       gradientTransform="matrix(1.1356456,-9.6417667e-7,2.8061951e-6,1.2666371,-109.18769,-19.983516)"
       cx="804.9472"
       cy="74.949409"
       fx="804.9472"
       fy="74.949409"
       r="11.806158" />
    <linearGradient
       osb:paint="solid"
       id="linearGradient5900-9">
      <stop
         id="stop5902-8"
         offset="0"
         style="stop-color:#333333;stop-opacity:1;" />
    </linearGradient>
    <radialGradient
       inkscape:collect="always"
       xlink:href="#linearGradient10248"
       id="radialGradient4047"
       cx="628.54547"
       cy="767.03345"
       fx="628.54547"
       fy="767.03345"
       r="153.44928"
       gradientTransform="matrix(1.5195653,0,0,1.396015,-246.57044,-303.75675)"
       gradientUnits="userSpaceOnUse" />
    <radialGradient
       inkscape:collect="always"
       xlink:href="#linearGradient10256"
       id="radialGradient4055"
       cx="804.63507"
       cy="75.690666"
       fx="804.63507"
       fy="75.690666"
       r="11.806158"
       gradientUnits="userSpaceOnUse"
       gradientTransform="matrix(1,-1.352555e-8,4.2957732e-8,1.2748837,-3.2262639e-6,-20.654541)" />
    <radialGradient
       inkscape:collect="always"
       xlink:href="#linearGradient10248"
       id="radialGradient4079"
       gradientUnits="userSpaceOnUse"
       gradientTransform="matrix(1.3857737,0,0,1.4670129,-1627.2574,-782.67618)"
       cx="1300.7063"
       cy="1100.9974"
       fx="1300.7063"
       fy="1100.9974"
       r="43.703541" />
    <radialGradient
       inkscape:collect="always"
       xlink:href="#linearGradient10256"
       id="radialGradient4081"
       gradientUnits="userSpaceOnUse"
       gradientTransform="matrix(1.1356456,-9.6417667e-7,2.8061951e-6,1.2666371,-109.18769,-19.983516)"
       cx="804.9472"
       cy="74.949409"
       fx="804.9472"
       fy="74.949409"
       r="11.806158" />
    <radialGradient
       inkscape:collect="always"
       xlink:href="#linearGradient10248"
       id="radialGradient4146"
       gradientUnits="userSpaceOnUse"
       gradientTransform="matrix(4.8715279,0,0,5.157115,-5704.2761,-4566.242)"
       cx="1300.7063"
       cy="1100.9974"
       fx="1300.7063"
       fy="1100.9974"
       r="43.703541" />
    <radialGradient
       inkscape:collect="always"
       xlink:href="#linearGradient10248"
       id="radialGradient4155"
       gradientUnits="userSpaceOnUse"
       gradientTransform="matrix(1.5195653,0,0,1.396015,-246.57044,-303.75675)"
       cx="628.54547"
       cy="767.03345"
       fx="628.54547"
       fy="767.03345"
       r="153.44928" />
    <radialGradient
       inkscape:collect="always"
       xlink:href="#linearGradient10256"
       id="radialGradient4157"
       gradientUnits="userSpaceOnUse"
       gradientTransform="matrix(1,-1.352555e-8,4.2957732e-8,1.2748837,-3.2262651e-6,-20.654541)"
       cx="804.63507"
       cy="75.690666"
       fx="804.63507"
       fy="75.690666"
       r="11.806158" />
  </defs>
  <sodipodi:namedview
     id="base"
     pagecolor="#ffffff"
     bordercolor="#f0f0f0"
     borderopacity="1"
     inkscape:pageopacity="0.0"
     inkscape:pageshadow="2"
     inkscape:zoom="0.76511163"
     inkscape:cx="430.81959"
     inkscape:cy="182.08137"
     inkscape:document-units="px"
     inkscape:current-layer="layer1"
     showgrid="false"
     inkscape:showpageshadow="false"
     inkscape:window-width="1356"
     inkscape:window-height="731"
     inkscape:window-x="5"
     inkscape:window-y="2"
     inkscape:window-maximized="0"
     showguides="true"
     inkscape:guide-bbox="true" />
  <metadata
     id="metadata7">
    <rdf:RDF>
      <cc:Work
         rdf:about="">
        <dc:format>image/svg+xml</dc:format>
        <dc:type
           rdf:resource="http://purl.org/dc/dcmitype/StillImage" />
        <dc:title />
      </cc:Work>
    </rdf:RDF>
  </metadata>
  <g
     inkscape:label="Layer 1"
     inkscape:groupmode="layer"
     id="layer1"
     transform="translate(0,-540.36218)">
    <rect
       style="fill:#f9f9f9;stroke:none"
       id="rect4156"
       width="512"
       height="512"
       x="0"
       y="540.36212"
       rx="0.90757388"
       ry="2.6038229" />
    <path
       id="path4063"
       style="fill:none;stroke:#f0f0f0;stroke-width:2;stroke-linecap:butt;stroke-linejoin:miter;stroke-miterlimit:4;stroke-opacity:1;stroke-dasharray:none"
       d="M 512.00158,588.36218 1,588.36218 m 511.00158,130 -511.00158,0 m 511.00158,130 -511.00158,0 m 511.00158,130 -511.00158,0"
       inkscape:connector-curvature="0"
       sodipodi:nodetypes="cccccccc" />
    <path
       id="path4044"
       style="fill:none;stroke:#f0f0f0;stroke-width:2;stroke-linecap:butt;stroke-linejoin:miter;stroke-miterlimit:4;stroke-opacity:1;stroke-dasharray:none"
       d="m 48.49961,540.86142 0,511.00158 m 130,-511.00158 0,511.00158 m 130,-511.00158 0,511.00158 m 130,-511.00158 0,511.00158"
       inkscape:connector-curvature="0"
       sodipodi:nodetypes="cccccccc" />
    <g
       id="g4142">
      <path
         sodipodi:type="arc"
         style="fill:#1a1a1a;fill-opacity:1;fill-rule:nonzero;stroke:none"
         id="path4112"
         sodipodi:cx="167.38461"
         sodipodi:cy="-83.457863"
         sodipodi:rx="18.285713"
         sodipodi:ry="18.285713"
         d="m 185.67033,-83.457863 c 0,10.098921 -8.1868,18.285713 -18.28572,18.285713 -10.09892,0 -18.28571,-8.186792 -18.28571,-18.285713 0,-10.09892 8.18679,-18.285717 18.28571,-18.285717 10.09892,0 18.28572,8.186797 18.28572,18.285717 z"
         transform="matrix(0.4283836,0,0,0.4283836,72.63594,689.75202)"
         inkscape:export-filename="/home/markus/src/alive/mine/ld30/sprites/star2.png"
         inkscape:export-xdpi="103.44"
         inkscape:export-ydpi="103.44" />
      <path
         inkscape:export-ydpi="103.44"
         inkscape:export-xdpi="103.44"
         inkscape:export-filename="/home/markus/src/alive/mine/ld30/sprites/star3.png"
         transform="matrix(0.32128771,0,0,0.32128771,385.51185,611.61671)"
         d="m 185.67033,-83.457863 c 0,10.098921 -8.1868,18.285713 -18.28572,18.285713 -10.09892,0 -18.28571,-8.186792 -18.28571,-18.285713 0,-10.09892 8.18679,-18.285717 18.28571,-18.285717 10.09892,0 18.28572,8.186797 18.28572,18.285717 z"
         sodipodi:ry="18.285713"
         sodipodi:rx="18.285713"
         sodipodi:cy="-83.457863"
         sodipodi:cx="167.38461"
         id="path4114"
         style="fill:#1a1a1a;fill-opacity:1;fill-rule:nonzero;stroke:none"
         sodipodi:type="arc" />
      <path
         sodipodi:type="arc"
         style="fill:#1a1a1a;fill-opacity:1;fill-rule:nonzero;stroke:none"
         id="path4116"
         sodipodi:cx="167.38461"
         sodipodi:cy="-83.457863"
         sodipodi:rx="18.285713"
         sodipodi:ry="18.285713"
         d="m 185.67033,-83.457863 c 0,10.098921 -8.1868,18.285713 -18.28572,18.285713 -10.09892,0 -18.28571,-8.186792 -18.28571,-18.285713 0,-10.09892 8.18679,-18.285717 18.28571,-18.285717 10.09892,0 18.28572,8.186797 18.28572,18.285717 z"
         transform="matrix(0.64257541,0,0,0.64257541,-24.982949,814.3979)"
         inkscape:export-filename="/home/markus/src/alive/mine/ld30/sprites/star0.png"
         inkscape:export-xdpi="103.44"
         inkscape:export-ydpi="103.44" />
      <path
         inkscape:export-ydpi="103.44"
         inkscape:export-xdpi="103.44"
         inkscape:export-filename="/home/markus/src/alive/mine/ld30/sprites/star0.png"
         transform="matrix(0.64257541,0,0,0.64257541,362.41997,670.50539)"
         d="m 185.67033,-83.457863 c 0,10.098921 -8.1868,18.285713 -18.28572,18.285713 -10.09892,0 -18.28571,-8.186792 -18.28571,-18.285713 0,-10.09892 8.18679,-18.285717 18.28571,-18.285717 10.09892,0 18.28572,8.186797 18.28572,18.285717 z"
         sodipodi:ry="18.285713"
         sodipodi:rx="18.285713"
         sodipodi:cy="-83.457863"
         sodipodi:cx="167.38461"
         id="path4122"
         style="fill:#1a1a1a;fill-opacity:1;fill-rule:nonzero;stroke:none"
         sodipodi:type="arc" />
      <path
         sodipodi:type="arc"
         style="fill:#1a1a1a;fill-opacity:1;fill-rule:nonzero;stroke:none"
         id="path4124"
         sodipodi:cx="167.38461"
         sodipodi:cy="-83.457863"
         sodipodi:rx="18.285713"
         sodipodi:ry="18.285713"
         d="m 185.67033,-83.457863 c 0,10.098921 -8.1868,18.285713 -18.28572,18.285713 -10.09892,0 -18.28571,-8.186792 -18.28571,-18.285713 0,-10.09892 8.18679,-18.285717 18.28571,-18.285717 10.09892,0 18.28572,8.186797 18.28572,18.285717 z"
         transform="matrix(0.53547952,0,0,0.53547952,58.613696,1047.7662)"
         inkscape:export-filename="/home/markus/src/alive/mine/ld30/sprites/star1.png"
         inkscape:export-xdpi="103.44"
         inkscape:export-ydpi="103.44" />
      <path
         inkscape:export-ydpi="103.44"
         inkscape:export-xdpi="103.44"
         inkscape:export-filename="/home/markus/src/alive/mine/ld30/sprites/star2.png"
         transform="matrix(0.4283836,0,0,0.4283836,384.13951,939.58737)"
         d="m 185.67033,-83.457863 c 0,10.098921 -8.1868,18.285713 -18.28572,18.285713 -10.09892,0 -18.28571,-8.186792 -18.28571,-18.285713 0,-10.09892 8.18679,-18.285717 18.28571,-18.285717 10.09892,0 18.28572,8.186797 18.28572,18.285717 z"
         sodipodi:ry="18.285713"
         sodipodi:rx="18.285713"
         sodipodi:cy="-83.457863"
         sodipodi:cx="167.38461"
         id="path4126"
         style="fill:#1a1a1a;fill-opacity:1;fill-rule:nonzero;stroke:none"
         sodipodi:type="arc" />
      <path
         sodipodi:type="arc"
         style="fill:#1a1a1a;fill-opacity:1;fill-rule:nonzero;stroke:none"
         id="path4128"
         sodipodi:cx="167.38461"
         sodipodi:cy="-83.457863"
         sodipodi:rx="18.285713"
         sodipodi:ry="18.285713"
         d="m 185.67033,-83.457863 c 0,10.098921 -8.1868,18.285713 -18.28572,18.285713 -10.09892,0 -18.28571,-8.186792 -18.28571,-18.285713 0,-10.09892 8.18679,-18.285717 18.28571,-18.285717 10.09892,0 18.28572,8.186797 18.28572,18.285717 z"
         transform="matrix(0.32128771,0,0,0.32128771,-28.772085,978.46356)"
         inkscape:export-filename="/home/markus/src/alive/mine/ld30/sprites/star3.png"
         inkscape:export-xdpi="103.44"
         inkscape:export-ydpi="103.44" />
      <path
         inkscape:export-ydpi="103.44"
         inkscape:export-xdpi="103.44"
         inkscape:export-filename="/home/markus/src/alive/mine/ld30/sprites/star3.png"
         transform="matrix(0.32128771,0,0,0.32128771,364.95578,776.0653)"
         d="m 185.67033,-83.457863 c 0,10.098921 -8.1868,18.285713 -18.28572,18.285713 -10.09892,0 -18.28571,-8.186792 -18.28571,-18.285713 0,-10.09892 8.18679,-18.285717 18.28571,-18.285717 10.09892,0 18.28572,8.186797 18.28572,18.285717 z"
         sodipodi:ry="18.285713"
         sodipodi:rx="18.285713"
         sodipodi:cy="-83.457863"
         sodipodi:cx="167.38461"
         id="path4130"
         style="fill:#1a1a1a;fill-opacity:1;fill-rule:nonzero;stroke:none"
         sodipodi:type="arc" />
      <path
         sodipodi:type="arc"
         style="fill:#1a1a1a;fill-opacity:1;fill-rule:nonzero;stroke:none"
         id="path4132"
         sodipodi:cx="167.38461"
         sodipodi:cy="-83.457863"
         sodipodi:rx="18.285713"
         sodipodi:ry="18.285713"
         d="m 185.67033,-83.457863 c 0,10.098921 -8.1868,18.285713 -18.28572,18.285713 -10.09892,0 -18.28571,-8.186792 -18.28571,-18.285713 0,-10.09892 8.18679,-18.285717 18.28571,-18.285717 10.09892,0 18.28572,8.186797 18.28572,18.285717 z"
         transform="matrix(0.32128771,0,0,0.32128771,423.46153,847.22094)"
         inkscape:export-filename="/home/markus/src/alive/mine/ld30/sprites/star3.png"
         inkscape:export-xdpi="103.44"
         inkscape:export-ydpi="103.44" />
      <path
         sodipodi:type="arc"
         style="fill:#1a1a1a;fill-opacity:1;fill-rule:nonzero;stroke:none"
         id="path4134"
         sodipodi:cx="167.38461"
         sodipodi:cy="-83.457863"
         sodipodi:rx="18.285713"
         sodipodi:ry="18.285713"
         d="m 185.67033,-83.457863 c 0,10.098921 -8.1868,18.285713 -18.28572,18.285713 -10.09892,0 -18.28571,-8.186792 -18.28571,-18.285713 0,-10.09892 8.18679,-18.285717 18.28571,-18.285717 10.09892,0 18.28572,8.186797 18.28572,18.285717 z"
         transform="matrix(0.4283836,0,0,0.4283836,-22.849977,964.18564)"
         inkscape:export-filename="/home/markus/src/alive/mine/ld30/sprites/star2.png"
         inkscape:export-xdpi="103.44"
         inkscape:export-ydpi="103.44" />
      <path
         inkscape:export-ydpi="103.44"
         inkscape:export-xdpi="103.44"
         inkscape:export-filename="/home/markus/src/alive/mine/ld30/sprites/star2.png"
         transform="matrix(0.4283836,0,0,0.4283836,28.58276,628.75474)"
         d="m 185.67033,-83.457863 c 0,10.098921 -8.1868,18.285713 -18.28572,18.285713 -10.09892,0 -18.28571,-8.186792 -18.28571,-18.285713 0,-10.09892 8.18679,-18.285717 18.28571,-18.285717 10.09892,0 18.28572,8.186797 18.28572,18.285717 z"
         sodipodi:ry="18.285713"
         sodipodi:rx="18.285713"
         sodipodi:cy="-83.457863"
         sodipodi:cx="167.38461"
         id="path4138"
         style="fill:#1a1a1a;fill-opacity:1;fill-rule:nonzero;stroke:none"
         sodipodi:type="arc" />
      <path
         sodipodi:type="arc"
         style="fill:#1a1a1a;fill-opacity:1;fill-rule:nonzero;stroke:none"
         id="path4140"
         sodipodi:cx="167.38461"
         sodipodi:cy="-83.457863"
         sodipodi:rx="18.285713"
         sodipodi:ry="18.285713"
         d="m 185.67033,-83.457863 c 0,10.098921 -8.1868,18.285713 -18.28572,18.285713 -10.09892,0 -18.28571,-8.186792 -18.28571,-18.285713 0,-10.09892 8.18679,-18.285717 18.28571,-18.285717 10.09892,0 18.28572,8.186797 18.28572,18.285717 z"
         transform="matrix(0.4283836,0,0,0.4283836,287.98265,1062.5787)"
         inkscape:export-filename="/home/markus/src/alive/mine/ld30/sprites/star2.png"
         inkscape:export-xdpi="103.44"
         inkscape:export-ydpi="103.44" />
    </g>
    <g
       id="g4149"
       transform="matrix(0.96592583,0.25881905,-0.25881905,0.96592583,-191.33404,-147.24904)">
      <path
         transform="matrix(3.5153849,0,0,3.5153849,93.567525,-2143.3236)"
         inkscape:export-filename="/home/markus/src/alive/mine/ld30/sprites/ship.png"
         inkscape:export-ydpi="103.44"
         inkscape:export-xdpi="103.44"
         inkscape:connector-curvature="0"
         id="path4071"
         d="m 174.95471,781.62583 c -8.6285,0 -16.5938,25.7878 -16.5938,30.9375 0,0.7932 -0.2739,3.7347 -0.5625,7.6875 -23.2537,12.6237 -26.6072,47.1868 -26.5625,53.6562 l 29.125,-2.9062 0,-8.2813 c 1.4919,2.4371 4.0796,4.7637 8.5625,5.875 -0.9104,1.4844 -1.4687,3.0124 -1.4687,4 0,0 0.9003,1.5625 7.5,1.5625 6.5996,0 7.4687,-1.5625 7.4687,-1.5625 0,-0.9794 -0.5408,-2.4959 -1.4375,-3.9687 4.4535,-1.1011 7.0418,-3.4276 8.5312,-5.8438 l 0,8.2188 29.125,2.9062 c 0.045,-6.4714 -3.3204,-41.0422 -26.5937,-53.6562 -0.2886,-3.9528 -0.5313,-6.8943 -0.5313,-7.6875 0,-5.1497 -7.934,-30.9375 -16.5624,-30.9375 z"
         style="fill:#4d4d4d;fill-opacity:1;fill-rule:nonzero;stroke:none;filter:url(#filter10636)" />
      <path
         style="fill:url(#radialGradient4155);fill-opacity:1;fill-rule:nonzero;stroke:none"
         d="m 708.60058,604.5884 c -30.29582,-10e-6 -58.26315,90.54482 -58.26309,108.62589 -10e-6,2.785 -0.96178,13.113 -1.97508,26.99191 -81.64701,44.32381 -93.42161,165.67946 -93.26467,188.3945 l 102.26197,-10.20415 4e-5,-29.07663 c 5.23821,8.55691 14.32404,16.72584 30.06411,20.62795 -3.19653,5.21169 -5.15684,10.577 -5.15683,14.04456 0,0 3.16107,5.48606 26.33355,5.48605 23.17214,0 26.2237,-5.48605 26.2237,-5.48605 0,-3.43895 -1.89888,-8.76338 -5.04733,-13.93483 15.63693,-3.86599 24.7248,-12.03461 29.95424,-20.51822 l 0,28.85718 102.26203,10.20413 c 0.15794,-22.72208 -11.65842,-144.10484 -93.37421,-188.39451 -1.0133,-13.87891 -1.8655,-24.20688 -1.8655,-26.99188 3e-5,-18.08108 -27.85739,-108.62591 -58.15293,-108.6259 z"
         id="path3769"
         inkscape:connector-curvature="0"
         inkscape:export-xdpi="103.44"
         inkscape:export-ydpi="103.44"
         inkscape:export-filename="/home/markus/src/alive/mine/ld30/sprites/ship.png" />
      <path
         sodipodi:type="arc"
         style="fill:url(#radialGradient4157);fill-opacity:1;fill-rule:nonzero;stroke:none"
         id="path3771"
         sodipodi:cx="804.63507"
         sodipodi:cy="69.346184"
         sodipodi:rx="11.806158"
         sodipodi:ry="11.806158"
         d="m 816.44123,69.346184 c 0,6.520361 -5.2858,11.806158 -11.80616,11.806158 -6.52036,0 -11.80616,-5.285797 -11.80616,-11.806158 0,-6.520361 5.2858,-11.806158 11.80616,-11.806158 6.52036,0 11.80616,5.285797 11.80616,11.806158 z"
         transform="matrix(3.2410525,5.5933806e-8,-1.0920863e-7,5.2355463,-1899.3189,355.43655)"
         inkscape:export-filename="/home/markus/src/alive/mine/ld30/sprites/ship.png"
         inkscape:export-xdpi="103.44"
         inkscape:export-ydpi="103.44" />
      <path
         inkscape:connector-curvature="0"
         id="path3775"
         d="m 631.49361,751.14017 c -6.4491,4.91825 -12.37243,10.34833 -17.80206,16.17647 6.86774,1.39486 20.52468,3.41897 25.05765,5.69613 4.32958,2.17494 7.74144,4.65032 9.43629,6.37014 0.91882,0.93214 1.28481,2.00719 1.42731,2.2996 -0.0343,3.79313 -0.1057,7.3313 -0.10573,11.19401 10e-6,6.6121 3.53965,11.71699 7.34813,15.58175 3.86577,3.92265 8.90356,7.33869 14.81523,10.30853 11.77419,5.91476 19.70532,7.55959 36.92569,7.55958 17.2204,0 25.07574,-1.65314 36.83318,-7.55958 5.91206,-2.96983 10.94942,-6.38589 14.81521,-10.30854 3.80859,-3.86475 7.34806,-8.96962 7.34813,-15.58174 0.0646,-3.86267 -0.10569,-7.4009 -0.10575,-11.19401 0.14401,-0.29248 0.50882,-1.36746 1.42733,-2.29959 1.69488,-1.71983 5.10674,-4.19521 9.43632,-6.37015 4.53391,-2.27759 18.17843,-4.30236 24.97834,-5.69612 -5.40794,-5.79912 -11.30493,-11.19919 -17.72273,-16.09718 -3.40091,2.15628 -13.18791,8.2618 -18.71395,13.78437 -3.80851,3.8647 -7.4671,8.96964 -7.46704,15.58173 -0.12997,4.00279 0.22467,7.33191 0.22461,11.19402 -0.0423,-0.40487 -0.30936,1.05674 -1.53306,2.2996 -1.69479,1.71985 -5.00095,4.19524 -9.33054,6.37014 -8.5952,4.31799 -26.32217,7.67855 -40.19006,7.67853 -13.86835,10e-6 -31.71834,-3.36974 -40.29577,-7.67854 -4.32957,-2.1749 -7.62259,-4.65027 -9.31733,-6.37013 -1.2251,-1.24283 -1.50558,-2.70447 -1.54631,-2.2996 0.068,-3.86211 0.22471,-7.19124 0.22473,-11.19402 -10e-6,-6.6121 -3.65857,-11.71703 -7.46713,-15.58173 -6.38802,-4.2332 -14.16008,-11.79118 -18.70069,-13.86367 z m -35.57767,56.65729 c -3.30498,0 -7.17939,0.16886 -10.45392,0.46256 -7.18605,13.96893 -12.75518,28.42708 -17.0223,42.33107 21.47062,-18.60753 29.0855,-33.29339 67.77201,-14.37909 4.32953,2.17496 7.74139,4.65033 9.43625,6.37016 0.91886,0.93214 1.28476,2.00718 1.42734,2.29959 -0.0347,3.79314 -0.10579,7.3313 -0.10573,11.19401 -2e-5,6.61211 3.53957,11.717 7.34814,15.58174 3.86572,3.92265 8.90352,7.33872 14.81522,10.30854 11.7742,5.91476 22.24279,7.5596 39.46315,7.55959 17.22042,10e-6 27.61329,-1.65315 39.37069,-7.5596 5.9121,-2.96984 10.94942,-6.38588 14.81517,-10.30852 3.80863,-3.86476 7.34823,-8.96964 7.34817,-15.58175 0.0646,-3.86272 -0.10576,-7.40087 -0.10575,-11.19401 0.14393,-0.29247 0.50887,-1.36745 1.42733,-2.2996 1.69489,-1.71982 5.1067,-4.19519 9.43632,-6.37014 42.50544,-19.06406 48.68399,-0.27704 68.04951,15.39672 -4.31258,-14.21614 -9.97045,-29.03801 -17.33948,-43.3487 -3.29335,-0.29304 -7.22735,-0.46256 -10.53316,-0.46257 -17.22045,10e-6 -25.16834,4.19063 -36.92574,10.09708 -5.912,2.96985 -10.84374,6.38582 -14.70947,10.30853 -3.80855,3.86471 -7.46702,8.96963 -7.46708,15.58175 -0.13002,4.00276 0.22467,7.3319 0.22465,11.19401 -0.0423,-0.40487 -0.30944,1.05676 -1.53305,2.29959 -1.69484,1.71987 -5.00096,4.19524 -9.33055,6.37015 -8.59529,4.318 -28.85955,7.67852 -42.72756,7.67853 -13.86827,0 -34.25593,-3.36972 -42.83324,-7.67854 -4.32964,-2.17489 -7.6225,-4.65027 -9.31733,-6.37014 -1.22505,-1.24284 -1.50557,-2.70446 -1.5463,-2.29959 0.0679,-3.86208 0.22465,-7.1913 0.22469,-11.19401 2e-5,-6.61213 -3.65854,-11.71703 -7.4671,-15.58175 -3.86578,-3.92271 -8.78459,-7.33866 -14.69626,-10.30853 -11.77428,-5.91475 -19.8239,-10.09707 -37.04462,-10.09708 z"
         style="opacity:0.181;fill:#1a1a1a;fill-opacity:1;fill-rule:nonzero;stroke:#1a1a1a;stroke-width:0.42291418;stroke-opacity:1" />
    </g>
  </g>
</svg>
