<?xml version="1.0" encoding="UTF-8" standalone="no"?>
<!-- Created with Inkscape (http://www.inkscape.org/) -->

<svg
   xmlns:osb="http://www.openswatchbook.org/uri/2009/osb"
   xmlns:dc="http://purl.org/dc/elements/1.1/"
   xmlns:cc="http://creativecommons.org/ns#"
   xmlns:rdf="http://www.w3.org/1999/02/22-rdf-syntax-ns#"
   xmlns:svg="http://www.w3.org/2000/svg"
   xmlns="http://www.w3.org/2000/svg"
   xmlns:sodipodi="http://sodipodi.sourceforge.net/DTD/sodipodi-0.dtd"
   xmlns:inkscape="http://www.inkscape.org/namespaces/inkscape"
   width="1024"
   height="1024"
   id="svg2"
   version="1.1"
   inkscape:version="0.48.5 r10040"
   sodipodi:docname="icon.svg"
   inkscape:export-filename="/home/markus/src/alive/mine/GalEx/src/svg/title.png"
   inkscape:export-xdpi="93.610001"
   inkscape:export-ydpi="93.610001">
  <defs
     id="defs4">
    <linearGradient
       id="linearGradient5900"
       osb:paint="solid">
      <stop
         style="stop-color:#333333;stop-opacity:1;"
         offset="0"
         id="stop5902" />
    </linearGradient>
  </defs>
  <sodipodi:namedview
     id="base"
     pagecolor="#ffffff"
     bordercolor="#f0f0f0"
     borderopacity="1"
     inkscape:pageopacity="0.0"
     inkscape:pageshadow="2"
     inkscape:zoom="0.16673001"
     inkscape:cx="436.05273"
     inkscape:cy="532.6413"
     inkscape:document-units="px"
     inkscape:current-layer="layer1"
     showgrid="false"
     inkscape:showpageshadow="false"
     inkscape:window-width="1366"
     inkscape:window-height="742"
     inkscape:window-x="0"
     inkscape:window-y="0"
     inkscape:window-maximized="1"
     showguides="true"
     inkscape:guide-bbox="true" />
  <metadata
     id="metadata7">
    <rdf:RDF>
      <cc:Work
         rdf:about="">
        <dc:format>image/svg+xml</dc:format>
        <dc:type
           rdf:resource="http://purl.org/dc/dcmitype/StillImage" />
        <dc:title></dc:title>
      </cc:Work>
    </rdf:RDF>
  </metadata>
  <g
     inkscape:label="Ebene 1"
     inkscape:groupmode="layer"
     id="layer1"
     transform="translate(0,-28.362183)">
    <path
       style="fill:#1a1a1a;fill-opacity:1;fill-rule:nonzero;stroke:none"
       d="M 625.62793,103.40118 C 556.43288,84.860426 437.14378,274.54695 426.07836,315.84369 c -1.7044,6.36087 -10.22152,29.36119 -21.02965,60.44014 C 191.4432,427.55127 90.281895,697.51871 76.738993,749.49537 l 239.808687,39.27722 17.79459,-66.41032 c 6.72736,22.74951 22.47974,46.96759 56.04168,65.51268 -10.49032,9.94712 -18.25104,21.00168 -20.37315,28.92152 0,0 3.86242,14.46456 56.78779,28.64587 52.92457,14.18109 63.2516,3.51859 63.2516,3.51859 2.1046,-7.85448 1.02623,-21.17742 -2.99986,-34.91571 38.08016,0.7398 63.83579,-12.35547 80.97171,-28.53145 l -17.6603,65.90911 227.31903,85.88928 c 14.26656,-51.80003 61.56318,-336.26683 -97.96898,-487.43258 6.17936,-32.31923 10.55368,-56.4296 12.25807,-62.79048 11.06542,-41.29673 2.85231,-265.14737 -66.34193,-283.68792 z"
       id="path6351"
       inkscape:connector-curvature="0"
       inkscape:export-xdpi="103.44"
       inkscape:export-ydpi="103.44"
       inkscape:export-filename="/home/markus/src/alive/mine/ld30/sprites/ship.png" />
    <path
       sodipodi:type="arc"
       style="fill:#ffffff;fill-opacity:1;fill-rule:nonzero;stroke:none"
       id="path6353"
       sodipodi:cx="804.63507"
       sodipodi:cy="69.346184"
       sodipodi:rx="11.806158"
       sodipodi:ry="11.806158"
       d="m 816.44123,69.346184 a 11.806158,11.806158 0 1 1 -23.61232,0 11.806158,11.806158 0 1 1 23.61232,0 z"
       transform="matrix(7.402486,1.9834902,-3.2040995,11.957862,-5182.9781,-2044.2883)"
       inkscape:export-filename="/home/markus/src/alive/mine/ld30/sprites/ship.png"
       inkscape:export-xdpi="103.44"
       inkscape:export-ydpi="103.44" />
    <path
       style="font-size:medium;font-style:normal;font-variant:normal;font-weight:normal;font-stretch:normal;text-indent:0;text-align:start;text-decoration:none;line-height:normal;letter-spacing:normal;word-spacing:normal;text-transform:none;direction:ltr;block-progression:tb;writing-mode:lr-tb;text-anchor:start;baseline-shift:baseline;color:#000000;fill:#ffffff;fill-opacity:1;fill-rule:nonzero;stroke:none;stroke-width:4;marker:none;visibility:visible;display:inline;overflow:visible;enable-background:accumulate;font-family:Sans;-inkscape-font-specification:Sans"
       d="m 360.87732,390.7707 c -17.9085,7.28687 -34.92846,16.03722 -51.03733,26.07704 14.32545,7.25927 26.56808,15.61965 35.78566,23.82442 8.55763,7.61717 14.83894,15.34468 17.65737,20.30993 1.5282,2.69132 1.70149,5.38067 1.84812,6.13576 l -2.61882,9.77359 -0.2486,-0.0666 -4.23042,15.78812 c -4.04654,15.10189 0.92151,28.92704 7.25492,40.08481 6.4287,11.32504 15.83534,22.22123 27.52003,32.62215 23.27235,20.71489 56.23694,39.77962 95.56789,50.31832 39.33095,10.53869 77.20406,10.4345 107.67237,4.13974 15.3205,-3.1649 28.91418,-7.89817 40.14412,-14.49159 11.06378,-6.49621 22.2788,-15.98511 26.32535,-31.08701 l 4.23041,-15.78811 -0.2486,-0.0666 2.61882,-9.77359 c 0.50779,-0.57991 2.00009,-2.8228 4.66841,-4.38966 4.92346,-2.89082 14.22698,-6.44239 25.44669,-8.76024 12.06955,-2.49342 26.7556,-3.6498 42.6533,-2.80675 -8.91235,-16.68966 -19.08339,-32.81977 -30.9109,-48.035 -7.66485,0.73352 -15.13446,1.78091 -22.08047,3.21587 -15.32053,3.16498 -28.66314,7.96527 -39.89312,14.55885 -11.06376,6.49613 -22.52981,15.91785 -26.57635,31.01975 l -4.23042,15.78811 0.4972,0.13323 -2.61882,9.77359 c 0.15154,-0.95049 -1.36326,2.23285 -4.91861,4.32262 -4.92348,2.8909 -13.9768,6.50951 -25.19649,8.82728 -22.27397,4.60199 -53.21919,4.54179 -84.89326,-3.94525 -31.67487,-8.48725 -58.79059,-24.00696 -75.74415,-39.09742 -8.55765,-7.61709 -14.58795,-15.27734 -17.40635,-20.24268 -2.03735,-3.58832 -1.75753,-7.10258 -2.09834,-6.20279 l 2.61883,-9.7736 0.4972,0.13323 4.23041,-15.78812 c 4.04655,-15.1019 -1.17248,-28.99438 -7.50592,-40.15207 -6.42865,-11.3252 -15.58435,-22.15389 -27.26902,-32.55489 -5.30561,-4.72242 -11.22175,-9.35075 -17.51512,-13.82548 z M 243.89549,498.55909 c -8.24952,-2.21045 -16.32732,-3.8781 -24.39383,-5.19332 -25.46069,28.09741 -47.32719,58.467 -65.80145,88.19602 62.72906,-29.86135 75.11674,-64.58986 153.24738,3.45884 8.55763,7.61718 14.83894,15.34468 17.65737,20.30994 1.5282,2.69132 1.70149,5.38066 1.84813,6.13576 l -2.61883,9.77359 -0.2486,-0.0666 -4.23041,15.78811 c -4.04655,15.1019 0.9215,28.92705 7.25491,40.08482 6.4287,11.32503 15.83534,22.22123 27.52003,32.62214 23.27235,20.7149 56.23694,39.77963 95.56789,50.31832 39.33095,10.5387 77.20406,10.43451 107.67237,4.13975 15.3205,-3.1649 28.91418,-7.89817 40.14412,-14.49159 11.06378,-6.49621 22.2788,-15.98511 26.32535,-31.08701 l 4.23041,-15.78811 -0.2486,-0.0666 2.61882,-9.77359 c 0.50779,-0.57991 2.00009,-2.8228 4.66841,-4.38966 4.92346,-2.89082 14.22698,-6.44239 25.44669,-8.76024 110.94496,-17.88301 97.87738,27.46 134.59342,76.08525 -1.04805,-35.70744 -4.8257,-73.79584 -13.03558,-111.73772 -7.68175,-2.90838 -15.69576,-5.54865 -23.97254,-7.76641 -39.33095,-10.5387 -77.45507,-10.50176 -107.92337,-4.207 -15.32053,3.16498 -28.66314,7.96527 -39.89312,14.55885 -11.06376,6.49612 -22.52981,15.91785 -26.57635,31.01975 l -4.23042,15.78811 0.4972,0.13323 -2.61882,9.77359 c 0.15154,-0.9505 -1.36326,2.23285 -4.91861,4.32261 -4.92348,2.89091 -13.9768,6.50952 -25.19649,8.82729 -22.27397,4.60199 -53.21919,4.54179 -84.89326,-3.94525 -31.67487,-8.48725 -58.79059,-24.00696 -75.74414,-39.09742 -8.55766,-7.61709 -14.58796,-15.27734 -17.40636,-20.24268 -2.03735,-3.58832 -1.75753,-7.10258 -2.09834,-6.2028 l 2.61883,-9.77359 0.4972,0.13322 4.23041,-15.78811 c 4.04655,-15.1019 -1.17248,-28.99438 -7.50592,-40.15207 -6.42865,-11.3252 -15.58435,-22.15389 -27.26902,-32.55489 -23.27235,-20.7149 -56.48714,-39.84667 -95.81889,-50.38558 z"
       id="path6355"
       inkscape:export-filename="/home/markus/src/alive/mine/ld30/sprites/ship.png"
       inkscape:export-xdpi="103.44"
       inkscape:export-ydpi="103.44"
       inkscape:connector-curvature="0" />
  </g>
</svg>
