<?xml version="1.0" encoding="UTF-8" standalone="no"?>
<!-- Created with Inkscape (http://www.inkscape.org/) -->

<svg
   xmlns:osb="http://www.openswatchbook.org/uri/2009/osb"
   xmlns:dc="http://purl.org/dc/elements/1.1/"
   xmlns:cc="http://creativecommons.org/ns#"
   xmlns:rdf="http://www.w3.org/1999/02/22-rdf-syntax-ns#"
   xmlns:svg="http://www.w3.org/2000/svg"
   xmlns="http://www.w3.org/2000/svg"
   xmlns:sodipodi="http://sodipodi.sourceforge.net/DTD/sodipodi-0.dtd"
   xmlns:inkscape="http://www.inkscape.org/namespaces/inkscape"
   width="1024"
   height="1024"
   id="svg2"
   version="1.1"
   inkscape:version="0.48.5 r10040"
   sodipodi:docname="icon.svg"
   inkscape:export-filename="/home/markus/src/alive/mine/GalEx/src/svg/title.png"
   inkscape:export-xdpi="93.610001"
   inkscape:export-ydpi="93.610001">
  <defs
     id="defs4">
    <linearGradient
       id="linearGradient5900"
       osb:paint="solid">
      <stop
         style="stop-color:#333333;stop-opacity:1;"
         offset="0"
         id="stop5902" />
    </linearGradient>
  </defs>
  <sodipodi:namedview
     id="base"
     pagecolor="#ffffff"
     bordercolor="#f0f0f0"
     borderopacity="1"
     inkscape:pageopacity="0.0"
     inkscape:pageshadow="2"
     inkscape:zoom="0.13093419"
     inkscape:cx="2067.4678"
     inkscape:cy="599.73215"
     inkscape:document-units="px"
     inkscape:current-layer="layer1"
     showgrid="false"
     inkscape:showpageshadow="false"
     inkscape:window-width="1366"
     inkscape:window-height="743"
     inkscape:window-x="0"
     inkscape:window-y="0"
     inkscape:window-maximized="1"
     showguides="true"
     inkscape:guide-bbox="true" />
  <metadata
     id="metadata7">
    <rdf:RDF>
      <cc:Work
         rdf:about="">
        <dc:format>image/svg+xml</dc:format>
        <dc:type
           rdf:resource="http://purl.org/dc/dcmitype/StillImage" />
        <dc:title />
      </cc:Work>
    </rdf:RDF>
  </metadata>
  <g
     inkscape:label="Ebene 1"
     inkscape:groupmode="layer"
     id="layer1"
     transform="translate(0,-28.362183)">
    <g
       transform="translate(-1541.3088,26.3993)"
       id="g3783">
      <path
         inkscape:export-filename="/home/markus/src/alive/mine/ld30/sprites/ship.png"
         inkscape:export-ydpi="103.44"
         inkscape:export-xdpi="103.44"
         inkscape:connector-curvature="0"
         id="path3785"
         d="M 2170.827,81.643178 C 2101.6321,63.102433 1982.3429,252.78894 1971.2776,294.0857 c -1.7044,6.36088 -10.2217,29.36118 -21.0298,60.44014 -213.6055,51.26743 -314.7668,321.23487 -328.3097,373.21152 l 239.8087,39.27722 17.7947,-66.4103 c 6.7272,22.7495 22.4797,46.96759 56.0416,65.51267 -10.4903,9.94713 -18.2511,21.00167 -20.3732,28.92151 0,0 3.8624,14.46456 56.7878,28.64587 52.9246,14.1811 63.2517,3.51861 63.2517,3.51861 2.1046,-7.85448 1.0261,-21.17743 -3,-34.91573 38.0803,0.73982 63.8359,-12.35545 80.9717,-28.53144 l -17.6603,65.90911 227.3192,85.88928 c 14.2664,-51.80003 61.5631,-336.26683 -97.969,-487.43257 6.1794,-32.31924 10.5536,-56.42961 12.258,-62.79049 11.0655,-41.29672 2.8523,-265.14738 -66.342,-283.687922 z"
         style="fill:#1a1a1a;fill-opacity:1;fill-rule:nonzero;stroke:none" />
      <path
         inkscape:export-ydpi="103.44"
         inkscape:export-xdpi="103.44"
         inkscape:export-filename="/home/markus/src/alive/mine/ld30/sprites/ship.png"
         transform="matrix(7.402486,1.9834902,-3.2040996,11.957862,-3633.1202,-2083.433)"
         d="m 816.44123,69.346184 c 0,6.520361 -5.2858,11.806158 -11.80616,11.806158 -6.52036,0 -11.80616,-5.285797 -11.80616,-11.806158 0,-6.520361 5.2858,-11.806158 11.80616,-11.806158 6.52036,0 11.80616,5.285797 11.80616,11.806158 z"
         sodipodi:ry="11.806158"
         sodipodi:rx="11.806158"
         sodipodi:cy="69.346184"
         sodipodi:cx="804.63507"
         id="path3787"
         style="fill:#ffffff;fill-opacity:1;fill-rule:nonzero;stroke:none"
         sodipodi:type="arc" />
      <path
         style="fill:#ffffff;fill-opacity:1;fill-rule:nonzero;stroke:#ffffff"
         d="m 1905.0284,369.17526 c -17.7395,7.28637 -34.5914,16.06353 -50.5593,26.05198 14.8321,7.38882 44.7855,20.36974 53.7451,28.34485 8.5576,7.61717 14.8353,15.35889 17.6538,20.32415 1.5281,2.6913 1.7061,5.37066 1.8526,6.12574 -2.3996,8.64245 -4.7281,16.67981 -7.0921,25.50214 -4.0465,15.10188 0.9138,28.92756 7.2471,40.08531 6.4287,11.32505 15.8443,22.21029 27.5289,32.61121 23.2722,20.71486 40.3801,29.32536 79.711,39.86404 39.331,10.5387 58.2841,11.57035 88.7525,5.27561 15.3205,-3.16491 28.9163,-7.88429 40.1463,-14.4777 11.0639,-6.49618 22.2721,-15.98946 26.3188,-31.09135 2.5115,-8.78269 4.2879,-16.96816 6.6091,-25.63155 0.5079,-0.57989 1.999,-2.81186 4.6673,-4.37871 4.9236,-2.8908 14.2311,-6.45649 25.4508,-8.77433 11.7492,-2.42726 44.1521,1.29851 60.5359,2.27666 -8.8026,-16.55465 -18.9664,-32.49717 -30.627,-47.61168 -9.0872,2.84357 -35.177,10.79887 -51.1781,20.03041 -11.0637,6.49613 -22.544,15.91666 -26.5904,31.01856 -2.7465,9.06273 -3.9739,16.88339 -6.3376,25.70434 0.1512,-0.9506 -1.3533,2.22423 -4.9088,4.314 -4.9234,2.8909 -13.9895,6.5213 -25.2092,8.83906 -22.2738,4.60202 -64.8184,1.42872 -96.4923,-7.05832 -31.675,-8.48725 -70.3817,-27.1077 -87.3354,-42.19818 -8.5576,-7.61708 -14.5639,-15.28605 -17.3821,-20.25135 -2.0375,-3.58834 -1.7836,-7.09833 -2.1244,-6.19854 2.5188,-8.77937 4.9142,-16.28709 7.3639,-25.42934 4.0465,-15.10188 -1.1854,-29.00043 -7.5189,-40.15811 -11.9994,-13.57793 -25.1252,-35.5966 -34.2275,-43.1089 z m -115.9322,107.63072 c -7.5485,-2.02262 -16.5009,-4.00805 -24.1596,-5.34121 -24.9616,27.5069 -46.5296,57.12073 -64.7847,86.26567 60.426,-29.35935 86.8058,-58.24127 163.5895,8.63427 8.5575,7.61717 14.8352,15.35889 17.6537,20.32416 1.5282,2.69132 1.706,5.37063 1.8527,6.12574 -2.4006,8.6422 -4.7283,16.67977 -7.0921,25.50214 -4.0466,15.10189 0.9136,28.92753 7.2471,40.08531 6.4286,11.32501 15.8442,22.21031 27.5289,32.61121 23.2722,20.71486 46.1756,30.8783 85.5065,41.41695 39.331,10.53874 64.0798,13.12329 94.5481,6.82852 15.3206,-3.1649 28.9163,-7.88427 40.1462,-14.4777 11.064,-6.49617 22.2725,-15.9894 26.3189,-31.09134 2.5115,-8.78282 4.2877,-16.96812 6.6091,-25.63156 0.5077,-0.57991 1.9991,-2.81181 4.6673,-4.37871 4.9236,-2.89078 14.231,-6.45648 25.4508,-8.77433 108.7484,-17.52898 111.3626,29.16133 146.0008,76.81133 -1.1497,-35.10857 -5.0013,-72.42392 -13.074,-109.61898 -7.3426,-2.68478 -16.224,-5.47952 -23.7744,-7.50268 -39.3311,-10.53871 -60.0485,-5.83145 -90.5168,0.46332 -15.3204,3.165 -28.6749,7.94882 -39.9048,14.5424 -11.0638,6.49612 -22.5438,15.91668 -26.5905,31.01857 -2.7466,9.06264 -3.9739,16.88339 -6.3375,25.70433 0.1512,-0.95058 -1.3535,2.22425 -4.9088,4.31401 -4.9235,2.89091 -13.9895,6.52129 -25.2092,8.83906 -22.274,4.60198 -70.6137,-0.12418 -102.2879,-8.61124 -31.6748,-8.48723 -76.1775,-28.66063 -93.1309,-43.75109 -8.5578,-7.61709 -14.5637,-15.286 -17.3821,-20.25135 -2.0374,-3.58834 -1.7836,-7.09833 -2.1244,-6.19854 2.5187,-8.77932 4.9141,-16.28727 7.3638,-25.42934 4.0466,-15.10192 -1.1853,-29.0004 -7.5188,-40.15812 -6.4287,-11.32519 -15.5726,-22.13741 -27.2572,-32.5384 -23.2724,-20.71489 -39.098,-35.19349 -78.4297,-45.7324 z"
         id="path3789"
         inkscape:connector-curvature="0" />
    </g>
  </g>
</svg>
