<?xml version="1.0" encoding="UTF-8" standalone="no"?>
<!-- Created with Inkscape (http://www.inkscape.org/) -->

<svg
   xmlns:osb="http://www.openswatchbook.org/uri/2009/osb"
   xmlns:dc="http://purl.org/dc/elements/1.1/"
   xmlns:cc="http://creativecommons.org/ns#"
   xmlns:rdf="http://www.w3.org/1999/02/22-rdf-syntax-ns#"
   xmlns:svg="http://www.w3.org/2000/svg"
   xmlns="http://www.w3.org/2000/svg"
   xmlns:sodipodi="http://sodipodi.sourceforge.net/DTD/sodipodi-0.dtd"
   xmlns:inkscape="http://www.inkscape.org/namespaces/inkscape"
   width="1024"
   height="1024"
   id="svg2"
   version="1.1"
   inkscape:version="0.48.5 r10040"
   sodipodi:docname="title.svg"
   inkscape:export-filename="/home/markus/src/alive/mine/GalEx/src/svg/title.png"
   inkscape:export-xdpi="93.610001"
   inkscape:export-ydpi="93.610001">
  <defs
     id="defs4">
    <linearGradient
       id="linearGradient5900"
       osb:paint="solid">
      <stop
         style="stop-color:#333333;stop-opacity:1;"
         offset="0"
         id="stop5902" />
    </linearGradient>
  </defs>
  <sodipodi:namedview
     id="base"
     pagecolor="#ffffff"
     bordercolor="#f0f0f0"
     borderopacity="1"
     inkscape:pageopacity="0.0"
     inkscape:pageshadow="2"
     inkscape:zoom="0.45521468"
     inkscape:cx="511.99995"
     inkscape:cy="512"
     inkscape:document-units="px"
     inkscape:current-layer="layer1"
     showgrid="false"
     inkscape:showpageshadow="false"
     inkscape:window-width="1366"
     inkscape:window-height="742"
     inkscape:window-x="0"
     inkscape:window-y="0"
     inkscape:window-maximized="1"
     showguides="true"
     inkscape:guide-bbox="true" />
  <metadata
     id="metadata7">
    <rdf:RDF>
      <cc:Work
         rdf:about="">
        <dc:format>image/svg+xml</dc:format>
        <dc:type
           rdf:resource="http://purl.org/dc/dcmitype/StillImage" />
        <dc:title></dc:title>
      </cc:Work>
    </rdf:RDF>
  </metadata>
  <g
     inkscape:label="Ebene 1"
     inkscape:groupmode="layer"
     id="layer1"
     transform="translate(0,-28.362183)">
    <g
       id="g3949"
       transform="translate(2408.481,62.905532)"
       inkscape:export-filename="/home/markus/src/alive/mine/GalEx/src/htdocs/title.jpg.png"
       inkscape:export-xdpi="93.610001"
       inkscape:export-ydpi="93.610001">
      <path
         style="fill:#1a1a1a;stroke:none"
         d="m -1930.4375,167.39343 c -6.2322,-0.012 -13.5836,0.75482 -21.3437,2.34375 -20.6938,4.23716 -36.46,12.78896 -35.1563,19.15625 1.8155,8.86684 30.8474,7.68463 32.2813,14.6875 l 6.9062,26.53125 c -27.916,5.86894 -57.6806,10.95513 -75.75,43.96875 -20.2672,3.6313 -49.3237,26.89827 -60.2812,44.65625 14.9338,9.46759 42.9812,24.3398 54.0312,23.625 14.6729,7.29289 56.1221,11.30922 80.6563,5.9375 -14.0295,-1.65684 -20.8723,-12.03171 -24.125,-16.84375 15.6332,-2.58177 33.1708,-4.38132 50.875,-3.5 l 0,0.0312 8.4375,4.6875 -21.9688,-132.93745 c -1.5654,-7.64541 25.5264,-18.27518 23.9063,-26.1875 -0.8149,-3.97956 -8.0819,-6.13625 -18.4688,-6.15625 z m -4.9687,3.75 c 5.6258,0.0199 9.4226,1.03335 9.8125,2.9375 0.6931,3.38517 -9.6066,8.34492 -23.0313,11.09375 -13.4248,2.74879 -24.9006,2.26016 -25.5937,-1.125 -0.6932,-3.38516 9.6691,-8.37599 23.0937,-11.125 5.8733,-1.20259 11.3431,-1.79676 15.7188,-1.78125 z m 24.0312,55.5 c -5.2025,-0.79427 -12.7506,0.0877 -16.1875,0.25 4.9265,33.11847 14.3842,55.26677 20,88.28125 0.9693,9.78862 6.6826,11.72174 12.1875,13.5 38.0946,11.05482 107.7381,79.62913 68.75,157.8125 8.164,-2.42845 17.3214,-10.08106 20,-16.28125 0.7719,4.5459 -3.1719,31.26446 -23.4062,43.28125 10.1149,-0.12048 23.3714,-7.89154 28.0312,-12.40625 -33.9642,192.69997 189.7612,52.42945 214.125,254.90625 37.2872,-42.58765 29.0667,-77.83161 22.25,-107.5625 16.966,-0.3643 41.8988,-11.88317 45.625,-16.46875 -16.7935,-1.95616 -65.0781,-22.19614 -68.75,-33.375 12.1733,2.21213 28.4657,3.66005 38.8125,-2.71875 -66.0167,-20.54147 -105.863,-70.18278 -86.125,-135.21875 -12.367,4.90131 -34.2503,0.6577 -43.5625,-6.875 32.6191,-12.49005 75.7569,-34.48984 87.5625,-105.0625 -22.5281,44.90934 -71.4247,47.40051 -109.75,26.40625 24.7713,-1.52875 43.7726,-16.45396 54.0938,-27.1875 -35.8175,10.58909 -74.001,12.21096 -98.875,-19.46875 5.8765,2.05014 23.2127,4.2832 35.1562,0.78125 -34.3426,-15.99166 -48.8634,-32.35324 -60.75,-43.90625 -17.6077,-19.33484 -39.0637,-36.61242 -61.3437,-47.65625 6.9916,0.68476 15.7982,2.13039 27.4375,3.8125 -19.658,-13.229 -49.649,-16.89854 -62.5,-15.40625 2.6241,-2.87077 8.1037,-6.00855 15.5,-7.40625 -20.7308,-8.61502 -40.9215,7.34471 -58.2813,7.96875 z m -238.75,25.3125 c -6.415,0.48284 -17.4721,11.95217 -26.5312,28.0625 -10.3533,18.41182 -14.1965,35.93939 -8.5313,39.125 7.8891,4.43616 25.9881,-18.28485 32.2188,-14.78125 l 57.1562,27.09375 c -20.7298,27.93771 -29.0408,64.78089 -32.7187,84.25 5.9614,-6.23586 18.598,-9.40411 22.6875,-11.375 -17.3994,43.02072 41.9367,128.11193 -64.375,143.09375 35.9636,21.93353 73.3499,17.34821 97.2187,8.6875 2.0779,25.2567 -14.2635,55.96505 -58.875,75.15625 47.1035,12.92249 110.9788,-14.08625 119.5,-25.375 4.6877,11.92602 7.4477,34.81426 -4.5,53.3125 23.1525,-5.13136 72.9453,7.28786 27.1875,54.375 18.7682,2.95222 41.46,-0.85748 52.4688,-10.15625 5.8947,13.98489 11.0452,19.9523 2.8125,53.3125 39.4765,-33.50651 42.7871,-81.06942 17.1562,-125.78125 -43.1607,-28.82676 -120.0872,-111.25197 -107.1875,-162.6875 -14.7458,-19.43435 -25.357,-55.74589 -11.7812,-105.59375 l 6.5625,-6.5 -113.9063,-68.53125 c -6.8023,-3.82507 2.9148,-31.2289 -4.125,-35.1875 -0.7082,-0.3982 -1.5211,-0.56898 -2.4375,-0.5 z m -7.0625,10.90625 c 0.3629,-0.0115 0.6864,0.06 0.9688,0.21875 3.0118,1.69363 0.029,12.74311 -6.6875,24.6875 -6.7166,11.94439 -14.6132,20.25614 -17.625,18.5625 -3.0119,-1.69362 0,-12.77435 6.7187,-24.71875 6.0869,-10.82459 13.117,-18.63923 16.625,-18.75 z"
         id="path3943"
         inkscape:connector-curvature="0"
         sodipodi:nodetypes="ssscccccccccccsssssscsccccccccccccccccccccccccccssscccccccccccccccccssccsscc" />
      <path
         inkscape:export-ydpi="103.44"
         inkscape:export-xdpi="103.44"
         inkscape:export-filename="/home/markus/src/alive/mine/ld30/sprites/world.png"
         transform="matrix(-1.0376545,-0.61656094,0.61656094,-1.0376545,-1655.9228,122.39642)"
         d="m 49.699635,-68.92308 c 0,23.823096 -19.312436,43.135532 -43.1355324,43.135532 -23.8230966,0 -43.1355326,-19.312436 -43.1355326,-43.135532 0,-23.823097 19.312436,-43.13553 43.1355326,-43.13553 23.8230964,0 43.1355324,19.312433 43.1355324,43.13553 z"
         sodipodi:ry="43.135532"
         sodipodi:rx="43.135532"
         sodipodi:cy="-68.92308"
         sodipodi:cx="6.5641026"
         id="path3338"
         style="fill:#1a1a1a;fill-opacity:1;fill-rule:nonzero;stroke:none"
         sodipodi:type="arc" />
      <g
         id="g3340"
         inkscape:label="Layer 1"
         transform="matrix(0.37043911,0,0,0.37043911,-2086.1458,590.18286)"
         style="fill:#1a1a1a;stroke:none">
        <path
           inkscape:export-ydpi="38.580002"
           inkscape:export-xdpi="38.580002"
           inkscape:export-filename="/home/markus/src/alive/mine/GalEx/src/htdocs/title.jpg.png"
           style="font-size:medium;font-style:normal;font-variant:normal;font-weight:normal;font-stretch:normal;text-indent:0;text-align:start;text-decoration:none;line-height:normal;letter-spacing:normal;word-spacing:normal;text-transform:none;direction:ltr;block-progression:tb;writing-mode:lr-tb;text-anchor:start;baseline-shift:baseline;color:#000000;fill:#1a1a1a;fill-opacity:1;stroke:none;stroke-width:1;marker:none;visibility:visible;display:inline;overflow:visible;enable-background:accumulate;font-family:Sans;-inkscape-font-specification:Sans"
           d="m 56.087012,218.362 c -18.37079,0.1515 -33.17693,2.885 -38.45077,4.3387 l 21.49291,56.9862 16.56348,-4.5355 c -4.09582,4.312 -7.27967,10.8971 -7.09861,20.5072 -3.47491,-1.0306 -6.88858,-1.3201 -8.87294,-0.7887 0,0 -2.76705,2.5086 0.788631,15.7747 3.55506,13.2678 7.29556,14.1973 7.29556,14.1973 1.96932,-0.53 4.6208,-2.3328 7.09861,-4.9294 4.61256,8.3608 10.70729,12.3077 16.366779,14.0006 l -16.366779,4.3373 9.85936,60.1418 c 13.03364,-3.3947 80.643977,-28.8419 93.465617,-82.4234 7.79083,-2.71 13.58845,-4.6996 15.18293,-5.1267 10.35268,-2.7739 57.8879,-32.5403 53.24054,-49.8881 -4.64785,-17.3455 -60.83201,-19.5342 -71.1841,-16.7604 -1.59519,0.429 -7.67282,1.4083 -15.77472,2.958 C 117.18847,223.4313 82.935753,218.1411 56.087012,218.362 z M 165.3276,255.6302 c 13.59839,-0.069 24.58339,5.3193 27.01404,14.3949 3.24193,12.0994 -9.83475,26.1149 -29.38029,31.3521 -19.54626,5.2373 -37.96932,-0.3218 -41.21138,-12.4223 -2.43125,-9.0756 4.35885,-19.3002 16.16849,-26.0284 3.93805,-2.2439 8.3254,-4.0149 13.21166,-5.3245 4.8865,-1.3091 9.66435,-1.9471 14.19748,-1.9718 z m -450.56745,8.4788 c -163.7968,0 -297.15814,133.362 -297.15814,297.158 0,163.7968 133.36134,297.1575 297.15814,297.1582 163.33731,0 296.413542,-132.6111 297.157422,-295.7775 0,-0.4859 0.19561,-0.9005 0.19561,-1.3807 1.43997,-32.1886 0.0631,-57.0365 -6.1130494,-78.0852 -6.26632197,-21.3622 -20.1790526,-40.1576 -39.0426926,-48.705 -61.79804,-13.3448 -132.7254,-25.0711 -191.07255,-25.0422 -36.35592,0.9035 -71.99174,14.3729 -99.38123,37.662 -29.2162,24.8421 -48.76623,61.8077 -45.94375,104.5087 0.84296,12.772 3.78087,25.6051 9.26791,37.4645 5.48582,11.8608 13.20099,22.8646 22.67605,32.1415 18.95434,18.55 48.50125,30.7716 77.69088,19.5218 25.09517,-9.6719 42.28283,-38.9885 26.7572,-64.3045 -2.65839,38.0847 -55.33794,40.5722 -78.61718,18.1625 -11.88664,-11.4425 -20.28771,-29.9066 -21.29597,-45.1551 -1.99769,-30.2624 11.21274,-55.7052 33.12709,-74.3384 21.71751,-18.4666 52.02841,-29.1392 80.84649,-28.3947 l 0.78874,0 c 57.33769,1.72 158.88059,17.4104 168.19847,52.8456 3.15051,10.7394 5.13378,30.8518 3.7468,60.3379 l 0,1.3806 c 0,132.2876 -106.70069,238.9883 -238.98831,238.9883 -132.28869,0 -238.79122,-106.7007 -238.79122,-238.9883 0,-132.0716 106.21173,-238.4437 238.19956,-238.7913 53.52516,2.0916 91.70256,15.9894 135.07127,27.2122 70.41181,22.7075 134.92185,-1.8298 177.072842,-34.3109 -55.772192,-6.5497 -112.813242,-9.3179 -162.480412,-22.0847 -39.79857,-10.2991 -85.06103,-26.8146 -147.88939,-29.1833 -0.36599,-0.063 -0.81774,0 -1.18265,0 z M 804.81793,491.96228 c -300.9011,416.33844 330.27877,470.69925 522.39007,223.50592 54.3586,50.54966 155.9767,138.14845 279.19,135.47438 -95.3687,-52.84438 -182.9788,-117.58739 -237.3868,-176.29128 39.8281,-45.2421 96.0525,-112.0439 151.8324,-266.0029 -94.2617,125.3147 -152.077,181.0061 -193.6356,225.5797 -46.5125,-37.8229 -102.2642,-100.3492 -189.4945,-215.3261 30.8176,127.9965 109.0611,211.7952 147.4944,255.9461 C 1060.4351,937.69874 546.1682,779.15317 908.51589,491.96228 726.66644,458.40356 741.35882,230.60492 986.12795,351.45723 817.01083,156.03967 646.74807,384.53364 804.81793,491.96228 z M 227.27152,447.8855 C 70.04736,447.8855 15.096104,734.04626 45.664347,862.3689 67.810301,748.48607 101.71001,506.0552 227.27152,506.0552 c 125.56152,0 157.23733,238.58604 181.41018,355.1298 C 439.70192,723.06792 384.49568,447.8855 227.27152,447.8855 z m 330.1426,-4.36914 C 390.83414,703.45947 472.80671,909.01958 721.98111,847.21319 485.8076,835.82593 517.9893,663.82548 557.41412,443.51636 z m -794.73846,56.82094 c -7.15537,0.064 -14.709,0.643 -21.88717,3.7461 -21.657,9.3621 -46.76355,36.2524 -15.17601,76.21 5.28148,-31.8431 19.17409,-36.8992 26.80969,-40.9142 15.78989,-5.3142 28.03926,-0.4984 39.83132,11.0423 11.79133,11.5397 20.4871,30.3028 21.49279,45.5502 2.00098,30.2617 -11.40835,55.3096 -33.32389,73.9447 -21.91627,18.635 -52.38618,29.5505 -81.43709,28.5914 -87.95724,-2.912 -148.56391,-89.9694 -141.38198,-174.9033 -42.4349,112.2774 56.32992,207.1565 140.19826,211.7773 38.82997,1.2872 77.4612,-12.4262 106.67728,-37.2683 29.21571,-24.8427 48.96195,-62.0025 46.14143,-104.705 -1.68737,-25.5425 -13.58033,-50.8593 -32.53528,-69.409 -14.21628,-13.9121 -33.94299,-23.8218 -55.40935,-23.6622 z"
           id="path3342"
           inkscape:connector-curvature="0"
           sodipodi:nodetypes="ccccccccccccccccccccsccsccsscccccscccscsccccccssscccccscccccccccccczczczcccssccccccccsscs" />
      </g>
      <path
         style="fill:#1a1a1a;stroke:none"
         d="m -1852.8437,397.11218 c -10.9387,23.0353 -21.1074,12.39317 -42.0871,14.89645 -14.0499,1.67641 -27.6007,13.41415 -36.513,34.11159 17.479,-23.28576 36.2946,-34.16729 59.85,-24.38304 -5.5153,26.27535 -32.9878,30.1933 -54.7039,27.26537 l -2.1677,1.18104 c 22.4705,4.90169 52.2707,0.41594 64.7467,-28.16516 8.0547,-7.42488 12.6102,-15.94855 10.875,-24.90625 z"
         id="path3344"
         inkscape:connector-curvature="0"
         sodipodi:nodetypes="cscccccc" />
      <path
         sodipodi:nodetypes="cccccc"
         inkscape:connector-curvature="0"
         id="path3346"
         d="m -1947.5315,438.99134 c -6.1546,-1.36296 -8.735,-6.02115 -10.1643,-11.74057 10.7961,-50.07674 49.3713,-68.76027 79.573,-67.32149 -2.4706,0.26354 -4.94,0.73305 -7.3976,1.39937 -2.1717,0.5888 -4.3342,1.33127 -6.4804,2.2211 -23.8231,9.87725 -45.6279,37.90993 -55.5307,75.44159 z"
         style="fill:#1a1a1a;stroke:none" />
      <path
         style="fill:#1a1a1a;stroke:none"
         d="m -2057.5747,401.91665 c 21.0742,12.06671 35.4623,27.30279 51.9199,44.70088 -13.2141,2.35845 -22.4001,8.59534 -35.8071,5.26654 5.3809,3.93611 12.519,12.63139 14.9698,18.52855 8.1032,2.28405 29.8265,5.21332 47.4174,-6.49597 2.4914,4.35318 4.4795,9.24882 6.625,13.875 l 0.25,-14.75 c -17.9148,-18.8595 -51.9241,-54.48488 -85.375,-61.125 z m 62.3005,47.08567 c 5.631,2.64697 12.9281,10.39506 15.9808,14.60183 -12.8488,6.64375 -30.4715,6.75166 -40.2797,-0.86197 4.9885,-6.98703 12.9097,-13.65423 24.2989,-13.73986 z"
         id="path3348"
         inkscape:connector-curvature="0"
         sodipodi:nodetypes="cccccccccccc" />
      <path
         sodipodi:nodetypes="cccccc"
         inkscape:connector-curvature="0"
         id="path3350"
         d="m -1947.8761,518.87196 -5.9436,2.91402 c -7.9951,2.81129 -17.8671,-1.95328 -19.8037,0.53076 -1.143,3.84084 8.1268,7.53878 20.458,7.26305 4.6532,-1.8543 8.8635,-5.24271 12.6656,-10.04417 z"
         style="fill:#1a1a1a;stroke:none" />
      <path
         inkscape:connector-curvature="0"
         id="path3352"
         d="m -1926.0581,543.27852 c 24.6067,3.37732 34.6446,2.5918 46.8622,-9.11522 -8.4091,26.26216 -19.8012,46.94969 -32.3373,52.47057 -13.9795,4.84719 -26.9575,6.05694 -41.2403,-4.46971 1.4059,-19.26206 -0.6586,-14.46757 -17.2805,-25.35417 17.364,-0.99983 34.326,-13.6671 43.9959,-13.53147 z m -20.0537,21.75971 3.3834,5.79888 c 13.5961,5.43215 29.1875,1.87666 41.3263,-17.06178 -25.4124,-2.58345 -27.3184,9.21136 -44.7097,11.2629 z"
         style="fill:#1a1a1a;stroke:none"
         sodipodi:nodetypes="cccccccccc" />
      <g
         style="fill:#1a1a1a;stroke:none"
         transform="matrix(0.36287855,-0.62852407,0.62852407,0.36287855,-1747.7091,2740.125)"
         inkscape:label="Layer 1"
         id="g3356">
        <path
           inkscape:export-ydpi="38.580002"
           inkscape:export-xdpi="38.580002"
           inkscape:export-filename="/home/markus/src/alive/mine/GalEx/src/htdocs/title.jpg.png"
           style="font-size:medium;font-style:normal;font-variant:normal;font-weight:normal;font-stretch:normal;text-indent:0;text-align:start;text-decoration:none;line-height:normal;letter-spacing:normal;word-spacing:normal;text-transform:none;direction:ltr;block-progression:tb;writing-mode:lr-tb;text-anchor:start;baseline-shift:baseline;color:#000000;fill:#1a1a1a;fill-opacity:1;stroke:none;stroke-width:1;marker:none;visibility:visible;display:inline;overflow:visible;enable-background:accumulate;font-family:Sans;-inkscape-font-specification:Sans"
           d="m 3016.3482,-1564.7193 c -18.3708,0.1515 -33.1769,2.885 -38.4508,4.3387 l 21.4929,56.9862 16.5635,-4.5355 c -4.0958,4.312 -7.2796,10.8971 -7.0986,20.5072 -3.4749,-1.0306 -6.8886,-1.3201 -8.8729,-0.7887 0,0 -2.7671,2.5086 0.7886,15.7747 3.5551,13.2678 7.2956,14.1973 7.2956,14.1973 1.9693,-0.53 4.6208,-2.3328 7.0986,-4.9294 4.6125,8.3608 10.7073,12.3077 16.3668,14.0006 l -16.3668,4.3373 9.8593,60.1418 c 13.0337,-3.3947 80.644,-28.8419 93.4657,-82.4234 7.7908,-2.71 13.5884,-4.6996 15.1829,-5.1267 10.3527,-2.7739 57.8879,-32.5403 53.2405,-49.8881 -4.6478,-17.3455 -60.832,-19.5342 -71.1841,-16.7604 -1.5952,0.429 -7.6728,1.4083 -15.7747,2.958 -22.505,-23.7203 -56.7578,-29.0105 -83.6065,-28.7896 z m 109.2406,37.2682 c 13.5984,-0.069 24.5834,5.3193 27.014,14.3949 3.242,12.0994 -9.8347,26.1149 -29.3803,31.3521 -19.5462,5.2373 -37.9693,-0.3218 -41.2113,-12.4223 -2.4313,-9.0756 4.3588,-19.3002 16.1685,-26.0284 3.938,-2.2439 8.3254,-4.0149 13.2116,-5.3245 4.8865,-1.3091 9.6644,-1.9471 14.1975,-1.9718 z"
           id="path3358"
           inkscape:connector-curvature="0"
           sodipodi:nodetypes="ccccccccccccccccccccsccsc" />
      </g>
      <path
         id="path3360"
         d="m -1893.25,418.3934 c -7.281,0 -13.1875,5.9066 -13.1875,13.1876 0,7.2809 5.9065,13.1874 13.1875,13.1874 7.281,1e-4 13.1875,-5.9065 13.1875,-13.1874 0,-7.281 -5.9065,-13.1876 -13.1875,-13.1876 z m -3.0625,0.75 c 1.7538,1.3769 6.5114,4.2718 8.2813,11.1876 1.7698,6.9157 -1.038,12.0289 -1.875,13.8437 -1.5295,-1.1841 -6.5427,-4.303 -8.3125,-11.2187 -1.7699,-6.9158 0.9589,-11.7444 1.9062,-13.8126 z"
         style="fill:#1a1a1a;fill-opacity:1;fill-rule:nonzero;stroke:none"
         inkscape:connector-curvature="0" />
      <path
         id="path3362"
         d="m -1994.9976,448.52884 c -5.6914,0 -10.3045,4.61313 -10.3045,10.30452 0,5.69139 4.6131,10.30452 10.3045,10.30452 5.6914,0 10.3045,-4.61313 10.3045,-10.30452 0,-5.69139 -4.6131,-10.30452 -10.3045,-10.30452 z m -3.6858,0.95117 c 1.5011,0.88181 5.4768,2.68135 7.5698,7.84729 2.0931,5.16597 0.4579,9.40726 0,10.89911 -1.3073,-0.75627 -5.5164,-2.68147 -7.6095,-7.84744 -2.093,-5.16597 -0.4769,-9.19962 0.04,-10.89896 z"
         style="fill:#1a1a1a;fill-opacity:1;fill-rule:nonzero;stroke:none"
         inkscape:connector-curvature="0" />
      <path
         style="fill:#1a1a1a;stroke:none"
         d="m -1579.5092,330.70666 c 23.7254,48.86863 34.0904,75.27492 -2.6484,122.91132 16.3742,-79.52916 -8.4716,-62.31856 2.6484,-122.91132 z"
         id="path3364"
         inkscape:connector-curvature="0"
         sodipodi:nodetypes="ccc" />
      <path
         inkscape:connector-curvature="0"
         style="fill:#1a1a1a;fill-opacity:1;fill-rule:nonzero;stroke:none"
         d="m -2248.2812,381.95593 c -5.5846,0.0551 -11.1156,1.01746 -16.375,2.8125 -0.2609,0.089 -0.5218,0.18809 -0.7813,0.28125 -0.5744,0.20624 -1.1202,0.42985 -1.6875,0.65625 -0.3879,0.15632 -0.772,0.30288 -1.1562,0.46875 -1.0194,0.44 -2.0391,0.90425 -3.0313,1.40625 -0.1667,0.0843 -0.3341,0.16402 -0.5,0.25 -1.0554,0.54725 -2.1059,1.12932 -3.125,1.75 -0.3488,0.21245 -0.687,0.43528 -1.0312,0.65625 -0.1152,0.074 -0.2292,0.14383 -0.3438,0.21875 -0.2204,0.14397 -0.4378,0.29002 -0.6562,0.4375 -1.1014,0.74414 -2.1716,1.54226 -3.2188,2.375 -0.4211,0.33489 -0.8383,0.65104 -1.25,1 -0.011,0.009 -0.02,0.0218 -0.031,0.0312 -0.7894,0.67015 -1.5595,1.37259 -2.3125,2.09375 -0.053,0.0506 -0.1036,0.10537 -0.1563,0.15625 -0.2662,0.25693 -0.5199,0.51793 -0.7812,0.78125 -0.097,0.0981 -0.2158,0.18232 -0.3125,0.28125 -2.8331,2.90078 -5.3684,6.1725 -7.5313,9.8125 -1.9289,3.24634 -3.4693,6.62068 -4.625,10.0625 10.3356,14.25079 25.8116,24.17604 40.9375,32.875 15.569,7.39159 31.7078,16.53874 49.3438,15.84375 1.3756,-1.75956 2.673,-3.62349 3.8437,-5.59375 2.392,-4.02558 4.1665,-8.22811 5.375,-12.53125 0.2461,-0.87629 0.4881,-1.74261 0.6875,-2.625 0.023,-0.10369 0.04,-0.20874 0.062,-0.3125 0.041,-0.18615 0.055,-0.37614 0.094,-0.5625 0.1256,-0.60303 0.24,-1.20756 0.3438,-1.8125 0.034,-0.20002 0.093,-0.39356 0.125,-0.59375 0.023,-0.14493 0.041,-0.29249 0.062,-0.4375 0.1247,-0.82683 0.2286,-1.67137 0.3125,-2.5 0,-0.0207 0,-0.0418 0,-0.0625 0,-0.0104 -10e-4,-0.0208 0,-0.0312 0.076,-0.76383 0.1151,-1.51707 0.1562,-2.28125 0.012,-0.218 0.054,-0.43829 0.062,-0.65625 0.06,-1.46017 0.063,-2.92106 0,-4.375 -0.015,-0.33534 -0.041,-0.66512 -0.062,-1 -0.039,-0.61707 -0.095,-1.26023 -0.1562,-1.875 -0.061,-0.61477 -0.1359,-1.20097 -0.2188,-1.8125 -0.083,-0.61153 -0.1776,-1.23641 -0.2812,-1.84375 -2.4783,-14.52453 -11.0591,-27.91486 -24.7188,-36.03125 -8.4975,-5.04913 -17.8516,-7.40337 -27.0625,-7.3125 z m -50.2188,63.84375 c 3.095,13.34149 11.3905,25.45189 24.0938,33 12.9211,7.67758 27.8142,9.09307 41.1875,5.1875 -2.0581,-0.85646 -4.487,-2.62994 -6.2188,-2.8125 -20.9376,-9.25618 -40.9849,-21.11288 -59.0625,-35.375 z"
         id="path3366" />
      <path
         inkscape:connector-curvature="0"
         id="path3368"
         d="m -2264.6609,384.77357 c -36.671,-15.57309 -67.3478,-18.56039 -75.1621,-5.40905 -10.241,17.2353 22.6472,55.66896 73.466,85.86484 3.4644,2.05849 6.9205,4.03015 10.3607,5.90314 11.5091,5.95016 23.2354,11.02765 34.5732,14.7729 42.7411,14.11893 66.0205,4.0186 48.5635,-23.93484 -1.6501,-2.64231 -3.6352,-5.36627 -5.8966,-8.13484 -4.5262,-5.74626 -10.3348,-11.70437 -17.0301,-17.63535 -0.1622,3.97893 -0.7969,7.96457 -1.8968,11.88083 2.0076,2.43543 3.7155,4.81865 5.0826,7.11975 11.886,20.00654 -5.5196,27.14557 -37.0889,16.37847 -24.9666,-8.5151 -52.481,-25.87202 -69.9869,-42.82532 17.8956,16.83631 45.245,33.78043 69.8247,41.56504 28.7142,9.09421 44.2708,1.9734 31.4052,-17.50333 2.1544,4.43982 2.5884,8.29326 0.9206,11.10013 -4.7699,8.02767 -25.1128,5.02094 -48.2153,-6.25208 -22.4305,-9.60231 -45.8311,-27.19176 -54.869,-41.30811 -1.2219,-1.90855 -2.1585,-3.68801 -2.8213,-5.34596 -3.4154,-10.16309 4.0432,-15.07683 18.4158,-13.40303 3.0522,-3.12252 6.4436,-5.81091 10.0846,-8.028 -38.7106,-13.23504 -59.9024,-4.49871 -45.4311,20.02605 13.7271,23.26383 55.9,53.51866 93.2207,66.24728 l 0.067,0.0148 c 26.2675,8.94309 43.6696,6.80238 45.3126,-4.15295 -0.8815,11.60956 -18.3398,14.22643 -44.874,5.50182 l -0.2091,-0.074 c -39.0577,-12.90222 -84.081,-45.03551 -99.2919,-69.82939 -1.3031,-2.12407 -2.3823,-4.14752 -3.2086,-6.0569 -0.034,-0.0788 -0.057,-0.15228 -0.091,-0.23091 -8.2344,-21.45745 14.4145,-28.18782 52.8369,-14.94226 1.5965,0.55026 3.1888,1.15972 4.7985,1.76294 2.3067,-1.1953 4.692,-2.23521 7.1395,-3.07155 z m 68.1638,40.52716 c 0.4144,2.42937 0.6658,4.89602 0.7331,7.36972 12.736,10.71897 22.9193,21.72481 28.668,31.61106 16.5838,28.52001 -8.4842,38.62345 -53.9521,22.90942 -0.44,-0.15206 -0.8818,-0.30114 -1.3228,-0.45694 32.8,12.48984 59.3772,14.08639 66.5732,1.97583 0.178,-0.29964 0.3545,-0.62669 0.5068,-0.93893 0.1638,-0.56443 0.2853,-1.14436 0.3806,-1.74773 -0.047,0.45192 -0.1197,0.88999 -0.2033,1.32167 5.9625,-13.48824 -11.2177,-38.10723 -41.3837,-62.04424 z"
         style="font-size:medium;font-style:normal;font-variant:normal;font-weight:normal;font-stretch:normal;text-indent:0;text-align:start;text-decoration:none;line-height:normal;letter-spacing:normal;word-spacing:normal;text-transform:none;direction:ltr;block-progression:tb;writing-mode:lr-tb;text-anchor:start;baseline-shift:baseline;color:#000000;fill:#1a1a1a;fill-opacity:1;stroke:none;stroke-width:8;marker:none;visibility:visible;display:inline;overflow:visible;enable-background:accumulate;font-family:Sans;-inkscape-font-specification:Sans" />
      <path
         inkscape:export-ydpi="103.44"
         inkscape:export-xdpi="103.44"
         inkscape:export-filename="/home/markus/src/alive/mine/ld30/sprites/world.png"
         transform="matrix(-0.35288237,-0.20967816,0.20967816,-0.35288237,-2150.709,351.40397)"
         d="m 49.699635,-68.92308 c 0,23.823096 -19.312436,43.135532 -43.1355324,43.135532 -23.8230966,0 -43.1355326,-19.312436 -43.1355326,-43.135532 0,-23.823097 19.312436,-43.13553 43.1355326,-43.13553 23.8230964,0 43.1355324,19.312433 43.1355324,43.13553 z"
         sodipodi:ry="43.135532"
         sodipodi:rx="43.135532"
         sodipodi:cy="-68.92308"
         sodipodi:cx="6.5641026"
         id="path3370"
         style="fill:#1a1a1a;fill-opacity:1;fill-rule:nonzero;stroke:none"
         sodipodi:type="arc" />
      <path
         sodipodi:type="arc"
         style="fill:#1a1a1a;fill-opacity:1;fill-rule:nonzero;stroke:none"
         id="path3373"
         sodipodi:cx="6.5641026"
         sodipodi:cy="-68.92308"
         sodipodi:rx="43.135532"
         sodipodi:ry="43.135532"
         d="m 49.699635,-68.92308 c 0,23.823096 -19.312436,43.135532 -43.1355324,43.135532 -23.8230966,0 -43.1355326,-19.312436 -43.1355326,-43.135532 0,-23.823097 19.312436,-43.13553 43.1355326,-43.13553 23.8230964,0 43.1355324,19.312433 43.1355324,43.13553 z"
         transform="matrix(-0.2063465,-0.12260843,0.12260843,-0.2063465,-2180.3794,577.86571)"
         inkscape:export-filename="/home/markus/src/alive/mine/ld30/sprites/world.png"
         inkscape:export-xdpi="103.44"
         inkscape:export-ydpi="103.44" />
      <path
         inkscape:export-ydpi="103.44"
         inkscape:export-xdpi="103.44"
         inkscape:export-filename="/home/markus/src/alive/mine/ld30/sprites/world.png"
         transform="matrix(-0.46278427,-0.27498045,0.27498045,-0.46278427,-1576.2228,110.77849)"
         d="m 49.699635,-68.92308 c 0,23.823096 -19.312436,43.135532 -43.1355324,43.135532 -23.8230966,0 -43.1355326,-19.312436 -43.1355326,-43.135532 0,-23.823097 19.312436,-43.13553 43.1355326,-43.13553 23.8230964,0 43.1355324,19.312433 43.1355324,43.13553 z"
         sodipodi:ry="43.135532"
         sodipodi:rx="43.135532"
         sodipodi:cy="-68.92308"
         sodipodi:cx="6.5641026"
         id="path3375"
         style="fill:#1a1a1a;fill-opacity:1;fill-rule:nonzero;stroke:none"
         sodipodi:type="arc" />
      <path
         inkscape:export-ydpi="103.44"
         inkscape:export-xdpi="103.44"
         inkscape:export-filename="/home/markus/src/alive/mine/ld30/sprites/world.png"
         transform="matrix(-0.47327609,-0.28121455,0.28121455,-0.47327609,-2216.1247,580.96493)"
         d="m 49.699635,-68.92308 c 0,23.823096 -19.312436,43.135532 -43.1355324,43.135532 -23.8230966,0 -43.1355326,-19.312436 -43.1355326,-43.135532 0,-23.823097 19.312436,-43.13553 43.1355326,-43.13553 23.8230964,0 43.1355324,19.312433 43.1355324,43.13553 z"
         sodipodi:ry="43.135532"
         sodipodi:rx="43.135532"
         sodipodi:cy="-68.92308"
         sodipodi:cx="6.5641026"
         id="path3379"
         style="fill:#1a1a1a;fill-opacity:1;fill-rule:nonzero;stroke:none"
         sodipodi:type="arc" />
      <path
         sodipodi:nodetypes="ccc"
         inkscape:connector-curvature="0"
         id="path3381"
         d="m -1595.649,416.42824 c -27.2258,62.93439 11.0706,95.26573 -8.6976,118.55031 -20.0522,-12.89807 -26.3218,-65.31123 8.6976,-118.55031 z"
         style="fill:#1a1a1a;stroke:none" />
      <path
         style="fill:#1a1a1a;fill-opacity:1;fill-rule:nonzero;stroke:none"
         d="m -1766.25,154.58093 c -7.0838,0.20038 -13.9245,3.92533 -17.8125,10.46875 -6.0323,10.15222 -2.6835,23.24893 7.4688,29.28125 4.7332,2.81242 10.0923,3.56947 15.0937,2.5625 -0.3106,-3.35384 -0.3338,-6.74556 -0.031,-10.125 0.5692,-9.8816 4.0404,-19.21513 9.5,-27.25 -0.8432,-0.70074 -1.7437,-1.35816 -2.7187,-1.9375 -3.1726,-1.8851 -6.6484,-2.86728 -10.0938,-3 -0.4737,-0.0182 -0.934,-0.0134 -1.4063,0 z"
         id="path3383"
         inkscape:connector-curvature="0" />
      <path
         id="path3389"
         d="m -2341.3615,287.86655 54.4937,9.02768 24.0027,-34.78779 -78.4964,25.76011 z m 82.4391,-24.9073 -19.7185,28.5795 44.7342,7.40597 -25.0157,-35.98547 z m -83.9128,27.55973 24.9906,35.94941 19.7173,-28.53484 -44.7079,-7.41457 z m 48.7465,8.08101 -19.2722,27.92404 76.6605,-25.15764 -43.7505,-7.24194 -3.2708,4.74707 a 1.3111343,2.2326754 81.511394 0 1 -2.9111,0.95536 l -7.4559,-1.22689 z"
         style="font-size:medium;font-style:normal;font-variant:normal;font-weight:normal;font-stretch:normal;text-indent:0;text-align:start;text-decoration:none;line-height:normal;letter-spacing:normal;word-spacing:normal;text-transform:none;direction:ltr;block-progression:tb;writing-mode:lr-tb;text-anchor:start;baseline-shift:baseline;color:#000000;fill:#1a1a1a;fill-opacity:1;fill-rule:nonzero;stroke:none;stroke-width:4;marker:none;visibility:visible;display:inline;overflow:visible;enable-background:accumulate;font-family:Sans;-inkscape-font-specification:Sans"
         inkscape:connector-curvature="0" />
      <path
         inkscape:connector-curvature="0"
         style="font-size:medium;font-style:normal;font-variant:normal;font-weight:normal;font-stretch:normal;text-indent:0;text-align:start;text-decoration:none;line-height:normal;letter-spacing:normal;word-spacing:normal;text-transform:none;direction:ltr;block-progression:tb;writing-mode:lr-tb;text-anchor:start;baseline-shift:baseline;color:#000000;fill:#1a1a1a;fill-opacity:1;fill-rule:nonzero;stroke:none;stroke-width:4;marker:none;visibility:visible;display:inline;overflow:visible;enable-background:accumulate;font-family:Sans;-inkscape-font-specification:Sans"
         d="m -2360.7857,521.18306 40.0754,22.02977 1.9631,34.83279 -42.0385,-56.86256 z m 45.0188,58.327 -1.6123,-28.61613 32.896,18.08753 -31.2837,10.5286 z m -44.9302,-60.80052 31.2523,-10.51805 1.6297,28.58657 -32.882,-18.06852 z m 35.8509,19.70285 -1.5794,-27.9629 41.0553,55.53266 -32.1722,-17.69053 -0.2648,-4.75088 a 1.9006864,0.98624036 46.353769 0 0 -1.5591,-2.10885 l -5.4798,-3.0195 z"
         id="path3391" />
      <path
         id="path3393"
         d="m -2267.4193,149.88653 37.8541,6.05419 13.6667,-35.79975 -51.5208,29.74556 z m 54.2751,-29.10942 -11.2273,29.41082 31.0742,4.96508 -19.8469,-34.3759 z m -55.0742,31.81999 19.8271,34.34148 11.2299,-29.36646 -31.057,-4.97502 z m 33.8622,5.4211 -10.9739,28.73663 50.3159,-29.04987 -30.3908,-4.85472 -1.8618,4.88492 a 1.2722395,1.5662387 60 0 1 -1.9108,1.10316 l -5.1786,-0.82012 z"
         style="font-size:medium;font-style:normal;font-variant:normal;font-weight:normal;font-stretch:normal;text-indent:0;text-align:start;text-decoration:none;line-height:normal;letter-spacing:normal;word-spacing:normal;text-transform:none;direction:ltr;block-progression:tb;writing-mode:lr-tb;text-anchor:start;baseline-shift:baseline;color:#000000;fill:#1a1a1a;fill-opacity:1;fill-rule:nonzero;stroke:none;stroke-width:4;marker:none;visibility:visible;display:inline;overflow:visible;enable-background:accumulate;font-family:Sans;-inkscape-font-specification:Sans"
         inkscape:connector-curvature="0" />
      <path
         inkscape:connector-curvature="0"
         style="font-size:medium;font-style:normal;font-variant:normal;font-weight:normal;font-stretch:normal;text-indent:0;text-align:start;text-decoration:none;line-height:normal;letter-spacing:normal;word-spacing:normal;text-transform:none;direction:ltr;block-progression:tb;writing-mode:lr-tb;text-anchor:start;baseline-shift:baseline;color:#000000;fill:#1a1a1a;fill-opacity:1;fill-rule:nonzero;stroke:none;stroke-width:4;marker:none;visibility:visible;display:inline;overflow:visible;enable-background:accumulate;font-family:Sans;-inkscape-font-specification:Sans"
         d="m -2267.8243,88.628379 26.3735,-14.16697 -8.4669,-28.702862 -17.9066,42.869832 z m 19.9181,-43.779126 6.9562,23.580246 21.6476,-11.63256 -28.6038,-11.947686 z m -19.1307,45.840736 28.5751,11.935731 -6.9335,-23.553961 -21.6416,11.61823 z m 23.5948,-12.66968 6.7943,23.041601 17.4877,-41.867201 -21.1709,11.37745 1.1572,3.91512 a 0.99354963,1.223147 22.670121 0 1 -0.6641,1.58989 l -3.6042,1.94314 z"
         id="path3395" />
      <path
         id="path3397"
         d="m -2331.8916,638.92568 -28.6664,8.63132 -14.309,-26.283 42.9754,17.65168 z m -45.0408,-16.87225 11.755,21.5925 -23.5326,7.0817 11.7776,-28.6742 z m 45.9418,18.88683 -11.7658,28.6455 -11.7525,-21.55789 23.5183,-7.08761 z m -25.6429,7.72524 11.4886,21.09713 -41.9703,-17.23886 23.0152,-6.92505 1.9502,3.58666 a 1.223147,0.99354963 22.329879 0 0 1.5938,0.65463 l 3.9225,-1.17451 z"
         style="font-size:medium;font-style:normal;font-variant:normal;font-weight:normal;font-stretch:normal;text-indent:0;text-align:start;text-decoration:none;line-height:normal;letter-spacing:normal;word-spacing:normal;text-transform:none;direction:ltr;block-progression:tb;writing-mode:lr-tb;text-anchor:start;baseline-shift:baseline;color:#000000;fill:#1a1a1a;fill-opacity:1;fill-rule:nonzero;stroke:none;stroke-width:4;marker:none;visibility:visible;display:inline;overflow:visible;enable-background:accumulate;font-family:Sans;-inkscape-font-specification:Sans"
         inkscape:connector-curvature="0" />
      <path
         id="path3399"
         d="m -1506.4149,366.36705 -0.1447,29.93734 29.2625,6.26518 -29.1178,-36.20252 z m 28.9562,38.40414 -24.0401,-5.14672 -0.115,24.57482 24.1551,-19.4281 z m -31.1437,-38.69659 -24.1309,19.40863 24.0062,5.1541 0.1247,-24.56273 z m -0.1335,26.78093 -23.4895,-5.03182 28.4368,35.3558 0.1116,-24.0342 -3.9925,-0.85258 a 1.223147,0.99354963 51.190135 0 1 -1.0799,-1.34263 l 0.014,-4.09457 z"
         style="font-size:medium;font-style:normal;font-variant:normal;font-weight:normal;font-stretch:normal;text-indent:0;text-align:start;text-decoration:none;line-height:normal;letter-spacing:normal;word-spacing:normal;text-transform:none;direction:ltr;block-progression:tb;writing-mode:lr-tb;text-anchor:start;baseline-shift:baseline;color:#000000;fill:#1a1a1a;fill-opacity:1;fill-rule:nonzero;stroke:none;stroke-width:4;marker:none;visibility:visible;display:inline;overflow:visible;enable-background:accumulate;font-family:Sans;-inkscape-font-specification:Sans"
         inkscape:connector-curvature="0" />
      <path
         inkscape:connector-curvature="0"
         style="font-size:medium;font-style:normal;font-variant:normal;font-weight:normal;font-stretch:normal;text-indent:0;text-align:start;text-decoration:none;line-height:normal;letter-spacing:normal;word-spacing:normal;text-transform:none;direction:ltr;block-progression:tb;writing-mode:lr-tb;text-anchor:start;baseline-shift:baseline;color:#000000;fill:#1a1a1a;fill-opacity:1;fill-rule:nonzero;stroke:none;stroke-width:4;marker:none;visibility:visible;display:inline;overflow:visible;enable-background:accumulate;font-family:Sans;-inkscape-font-specification:Sans"
         d="m -1512.5654,456.60732 3.3229,29.36815 41.3921,9.59404 -44.715,-38.96219 z m 44.7497,41.1042 -34.0049,-7.88152 2.7328,24.10803 31.2721,-16.22651 z m -47.8231,-41.64875 -31.2408,16.21027 33.9587,7.88475 -2.7179,-24.09502 z m 2.9669,26.27128 -33.2265,-7.70391 43.6692,38.05093 -2.674,-23.57778 -5.6473,-1.3068 a 1.6510837,0.99352293 26.059124 0 1 -1.6583,-1.44498 l -0.4631,-4.01746 z"
         id="path3401" />
      <path
         inkscape:connector-curvature="0"
         style="font-size:medium;font-style:normal;font-variant:normal;font-weight:normal;font-stretch:normal;text-indent:0;text-align:start;text-decoration:none;line-height:normal;letter-spacing:normal;word-spacing:normal;text-transform:none;direction:ltr;block-progression:tb;writing-mode:lr-tb;text-anchor:start;baseline-shift:baseline;color:#000000;fill:#1a1a1a;fill-opacity:1;fill-rule:nonzero;stroke:none;stroke-width:4;marker:none;visibility:visible;display:inline;overflow:visible;enable-background:accumulate;font-family:Sans;-inkscape-font-specification:Sans"
         d="m -1405.7258,583.97302 -54.4937,9.02768 -24.0027,-34.78779 78.4964,25.76011 z m -82.4391,-24.9073 19.7185,28.5795 -44.7342,7.40597 25.0157,-35.98547 z m 83.9128,27.55973 -24.9906,35.94941 -19.7173,-28.53484 44.7079,-7.41457 z m -48.7465,8.08101 19.2722,27.92404 -76.6605,-25.15764 43.7505,-7.24194 3.2708,4.74707 a 2.2326754,1.3111343 8.488606 0 0 2.9111,0.95536 l 7.4559,-1.22689 z"
         id="path3945" />
    </g>
  </g>
</svg>
